<?xml version="1.0" standalone="no"?>
<!DOCTYPE svg PUBLIC "-//W3C//DTD SVG 20010904//EN"
 "http://www.w3.org/TR/2001/REC-SVG-20010904/DTD/svg10.dtd">
<svg version="1.0" xmlns="http://www.w3.org/2000/svg"
 viewBox="0 0 500.000000 500.000000"
 preserveAspectRatio="xMidYMid meet">
<metadata>
Created by potrace 1.16, written by Peter Selinger 2001-2019
</metadata>
<g transform="translate(0.000000,500.000000) scale(0.100000,-0.100000)"
fill="#000000" stroke="none">
<path d="M2335 4171 c-234 -67 -397 -278 -399 -516 -1 -164 51 -292 164 -405
253 -253 681 -196 861 115 182 312 12 719 -337 810 -76 20 -213 18 -289 -4z"/>
<path d="M621 3886 c-6 -7 -42 -71 -79 -142 -38 -71 -111 -205 -163 -299 -225
-402 -280 -506 -274 -515 8 -12 1034 -14 1053 -1 13 8 -86 198 -338 646 -37
66 -91 164 -119 217 -29 54 -56 100 -60 103 -5 2 -14 -1 -20 -9z"/>
<path d="M2265 2869 c-139 -21 -281 -85 -383 -172 -34 -29 -114 -115 -179
-193 -65 -78 -185 -221 -268 -319 -82 -97 -158 -187 -167 -198 -9 -12 -19 -20
-21 -17 -3 3 -71 152 -150 331 -80 180 -155 346 -167 370 -43 85 -17 79 -347
79 -315 0 -344 -4 -377 -51 -20 -30 -21 -88 0 -117 32 -46 61 -52 247 -52
l175 0 217 -489 c143 -324 226 -497 243 -514 53 -50 126 -61 190 -28 34 18
103 93 223 242 67 84 139 162 139 152 0 -9 68 -451 95 -618 8 -49 31 -198 50
-330 20 -132 37 -246 40 -253 3 -10 141 -12 662 -10 l658 3 7 40 c4 22 26 164
48 315 23 151 61 402 86 557 24 156 44 288 44 294 0 19 25 -8 147 -155 195
-236 218 -256 293 -256 49 0 114 31 136 65 15 23 169 368 351 785 42 96 81
181 86 188 7 9 56 12 184 12 192 0 220 7 248 60 20 39 19 68 -5 107 -13 21
-31 35 -57 42 -23 7 -154 11 -325 11 -255 0 -288 -2 -303 -17 -20 -20 -44 -70
-220 -463 -72 -162 -136 -295 -141 -294 -5 0 -96 103 -202 230 -355 421 -383
452 -442 498 -83 65 -194 123 -286 147 -65 18 -113 22 -274 25 -107 1 -222 -1
-255 -7z"/>
</g>
</svg>
